<?xml version="1.0" encoding="utf-8"?>
<!-- Generator: Adobe Illustrator 19.0.0, SVG Export Plug-In . SVG Version: 6.00 Build 0)  -->
<svg version="1.1" id="图层_1" xmlns="http://www.w3.org/2000/svg" xmlns:xlink="http://www.w3.org/1999/xlink" x="0px" y="0px"
	 viewBox="0 0 15 15" style="enable-background:new 0 0 15 15;" xml:space="preserve">
<style type="text/css">
	.st0{fill:#545D5F;}
</style>
<g id="XMLID_11_">
	<g id="XMLID_12_">
		<path id="XMLID_14_" class="st0" d="M14.5,2h-14C0.2,2,0,2.3,0,2.6v9.9C0,12.7,0.2,13,0.5,13h14c0.3,0,0.5-0.2,0.5-0.5V2.6
			C15,2.3,14.8,2,14.5,2z M14,11.9H1V3.1h13V11.9z"/>
		<path id="XMLID_1_" class="st0" d="M2.4,5.5l4.9,3c0.1,0.1,0.2,0.1,0.3,0.1s0.2,0,0.3-0.1l4.9-3c0.1-0.2,0.2-0.5,0-0.7
			c-0.1-0.2-0.5-0.3-0.7-0.2L7.5,7.4L2.9,4.6C2.6,4.4,2.3,4.5,2.2,4.8C2,5,2.1,5.3,2.4,5.5z"/>
	</g>
</g>
</svg>
