<?xml version="1.0" encoding="utf-8"?>
<!-- Generator: Adobe Illustrator 19.0.0, SVG Export Plug-In . SVG Version: 6.00 Build 0)  -->
<svg version="1.1" id="图层_1" xmlns="http://www.w3.org/2000/svg" xmlns:xlink="http://www.w3.org/1999/xlink" x="0px" y="0px"
	 viewBox="0 0 50 25" style="enable-background:new 0 0 50 25;" xml:space="preserve">
<style type="text/css">
	.st0{fill:#E84118;}
	.st1{fill:#1DAE71;}
</style>
<g id="XMLID_2_">
	<g id="XMLID_3_">
		<g id="XMLID_4_">
			<path id="XMLID_24_" class="st0" d="M37.5,23.7C13.1,10.4,30.8-6.1,37.5,5C44.2-6.1,61.9,10.4,37.5,23.7z"/>
		</g>
	</g>
</g>
<g id="XMLID_1_">
	<g id="XMLID_5_">
		<g id="XMLID_6_">
			<path id="XMLID_21_" class="st1" d="M6.7,2.3c1.9,0,3.7,1.1,4.9,3.2l0.9,1.4l0.9-1.4c1.2-2.1,3-3.2,4.9-3.2c2.5,0,4.8,2,5.5,4.6
				c0.5,1.9,1.1,8.7-11.3,15.6C0.1,15.6,0.7,8.9,1.2,7C1.9,4.3,4.2,2.3,6.7,2.3 M18.3,1.3c-2.1,0-4.2,1.1-5.8,3.7
				c-1.6-2.6-3.7-3.7-5.8-3.7c-6.9,0-13,12.1,5.8,22.4C31.3,13.5,25.2,1.3,18.3,1.3L18.3,1.3z"/>
		</g>
	</g>
</g>
</svg>
