<?xml version="1.0" encoding="utf-8"?>
<!-- Generator: Adobe Illustrator 19.0.0, SVG Export Plug-In . SVG Version: 6.00 Build 0)  -->
<svg version="1.1" id="图层_1" xmlns="http://www.w3.org/2000/svg" xmlns:xlink="http://www.w3.org/1999/xlink" x="0px" y="0px"
	 viewBox="0 0 15 15" style="enable-background:new 0 0 15 15;" xml:space="preserve">
<style type="text/css">
	.st0{fill:#545D5F;}
</style>
<g id="XMLID_7_">
	<g id="XMLID_15_">
		<path id="XMLID_17_" class="st0" d="M12.6,5.1h-1.1V2.9c0-1.6-1.3-2.9-2.9-2.9H6.4C4.8,0,3.5,1.3,3.5,2.9v2.2H2.4
			c-0.3,0-0.5,0.2-0.5,0.5V11c0,2.2,1.8,4,4,4h3.3c2.2,0,4-1.8,4-4V5.7C13.2,5.4,12.9,5.1,12.6,5.1z M4.5,2.9c0-1,0.8-1.8,1.8-1.8
			h2.3c1,0,1.8,0.8,1.8,1.8v2.2H4.5V2.9z M12.1,11c0,1.6-1.3,2.9-2.9,2.9H5.9C4.3,13.9,3,12.6,3,11V6.2h9.1V11z"/>
		<path id="XMLID_2_" class="st0" d="M7,12.1c0,0.3,0.2,0.5,0.5,0.5S8,12.4,8,12.1v-1.6c0.1-0.1,0.1-0.2,0.1-0.3
			c0-0.3-0.2-0.5-0.5-0.5H7.4c-0.3,0-0.5,0.2-0.5,0.5c0,0.1,0,0.2,0.1,0.3V12.1z"/>
	</g>
</g>
</svg>
