<?xml version="1.0" encoding="utf-8"?>
<!-- Generator: Adobe Illustrator 19.0.0, SVG Export Plug-In . SVG Version: 6.00 Build 0)  -->
<svg version="1.1" id="图层_1" xmlns="http://www.w3.org/2000/svg" xmlns:xlink="http://www.w3.org/1999/xlink" x="0px" y="0px"
	 viewBox="0 0 15 15" style="enable-background:new 0 0 15 15;" xml:space="preserve">
<style type="text/css">
	.st0{fill:#545D5F;}
</style>
<g id="XMLID_2_">
	<g id="User">
		<g id="XMLID_3_">
			<path id="XMLID_4_" class="st0" d="M7.5,10.3c2.3,0,4.2-2.3,4.2-5.2S9.8,0,7.5,0c-1.1,0-2.2,0.6-3,1.5c-0.8,1-1.2,2.2-1.2,3.6
				C3.3,8,5.2,10.3,7.5,10.3z M7.5,0.9c1.8,0,3.3,1.9,3.3,4.2c0,2.3-1.5,4.2-3.3,4.2S4.2,7.5,4.2,5.2C4.2,2.8,5.7,0.9,7.5,0.9z
				 M10.8,9.4c-0.3,0-0.5,0.2-0.5,0.5s0.2,0.5,0.5,0.5c1.8,0,3.3,1.5,3.3,3.3c0,0.3-0.2,0.5-0.5,0.5H1.4c-0.3,0-0.5-0.2-0.5-0.5
				c0-1.8,1.5-3.3,3.3-3.3c0.3,0,0.5-0.2,0.5-0.5S4.5,9.4,4.2,9.4C1.9,9.4,0,11.3,0,13.6C0,14.4,0.6,15,1.4,15h12.2
				c0.8,0,1.4-0.6,1.4-1.4C15,11.3,13.1,9.4,10.8,9.4z"/>
		</g>
	</g>
</g>
</svg>
